<svg xmlns="http://www.w3.org/2000/svg" viewBox="0 0 640 280" width="640" height="280" role="img" aria-label="Illustration du labo git">
<defs>
<linearGradient id="ciel" x1="0" y1="0" x2="0" y2="1"><stop offset="0" stop-color="#07061a"/><stop offset=".7" stop-color="#5e2a12"/><stop offset="1" stop-color="#5e2a12"/></linearGradient>
<linearGradient id="soleil" x1="0" y1="0" x2="0" y2="1"><stop offset="0" stop-color="#f8e71c"/><stop offset=".55" stop-color="#ff2e88"/><stop offset="1" stop-color="#ff8a3d"/></linearGradient>
<linearGradient id="sol" x1="0" y1="0" x2="0" y2="1"><stop offset="0" stop-color="#140b2e"/><stop offset="1" stop-color="#05040f"/></linearGradient>
<clipPath id="coupe"><rect x="0" y="0" width="640" height="196"/></clipPath>
<filter id="lueur" x="-20%" y="-20%" width="140%" height="140%"><feGaussianBlur stdDeviation="3" result="b"/><feMerge><feMergeNode in="b"/><feMergeNode in="SourceGraphic"/></feMerge></filter>
</defs>
<rect width="640" height="280" fill="url(#ciel)"/><circle cx="576" cy="14" r="0.7" fill="#fff" opacity="0.3"/><circle cx="261" cy="37" r="1" fill="#fff" opacity="0.5"/><circle cx="419" cy="10" r="1.3" fill="#fff" opacity="0.3"/><circle cx="175" cy="105" r="1.3" fill="#fff" opacity="0.8"/><circle cx="152" cy="41" r="1" fill="#fff" opacity="0.3"/><circle cx="238" cy="28" r="1.3" fill="#fff" opacity="0.3"/><circle cx="119" cy="85" r="1" fill="#fff" opacity="0.8"/><circle cx="269" cy="43" r="1" fill="#fff" opacity="0.3"/><circle cx="124" cy="47" r="1.3" fill="#fff" opacity="0.5"/><circle cx="453" cy="80" r="1" fill="#fff" opacity="0.8"/><circle cx="177" cy="62" r="1.3" fill="#fff" opacity="0.8"/><circle cx="270" cy="26" r="0.7" fill="#fff" opacity="0.8"/><circle cx="394" cy="92" r="1" fill="#fff" opacity="0.8"/><circle cx="205" cy="82" r="0.7" fill="#fff" opacity="0.8"/><circle cx="578" cy="102" r="0.7" fill="#fff" opacity="0.8"/><circle cx="552" cy="17" r="1" fill="#fff" opacity="0.3"/><circle cx="301" cy="97" r="1" fill="#fff" opacity="0.5"/><circle cx="50" cy="104" r="1.3" fill="#fff" opacity="0.8"/><circle cx="113" cy="104" r="1" fill="#fff" opacity="0.8"/><circle cx="530" cy="84" r="1" fill="#fff" opacity="0.3"/><circle cx="309" cy="28" r="0.7" fill="#fff" opacity="0.8"/><circle cx="524" cy="67" r="0.7" fill="#fff" opacity="0.8"/><circle cx="211" cy="55" r="1" fill="#fff" opacity="0.3"/><circle cx="518" cy="29" r="0.7" fill="#fff" opacity="0.5"/><circle cx="217" cy="33" r="0.7" fill="#fff" opacity="0.5"/><circle cx="510" cy="94" r="1.3" fill="#fff" opacity="0.8"/><circle cx="418" cy="63" r="0.7" fill="#fff" opacity="0.8"/><circle cx="102" cy="94" r="1" fill="#fff" opacity="0.5"/><g clip-path="url(#coupe)"><circle cx="150" cy="158" r="72" fill="url(#soleil)" filter="url(#lueur)"/><rect x="70" y="150.0" width="160" height="2.0" fill="#5e2a12"/><rect x="70" y="159.0" width="160" height="3.3" fill="#5e2a12"/><rect x="70" y="168.0" width="160" height="4.6" fill="#5e2a12"/><rect x="70" y="177.0" width="160" height="5.9" fill="#5e2a12"/><rect x="70" y="186.0" width="160" height="7.2" fill="#5e2a12"/><rect x="70" y="195.0" width="160" height="8.5" fill="#5e2a12"/></g><rect x="0" y="149" width="42" height="47" fill="#1a0b04"/><rect x="4" y="155" width="3" height="4" fill="#ff8a3d" opacity=".85"/><rect x="18" y="155" width="3" height="4" fill="#ff8a3d" opacity=".85"/><rect x="47" y="175" width="42" height="21" fill="#1a0b04"/><rect x="58" y="181" width="3" height="4" fill="#ff2e88" opacity=".85"/><rect x="72" y="181" width="3" height="4" fill="#ff8a3d" opacity=".85"/><rect x="95" y="157" width="26" height="39" fill="#1a0b04"/><rect x="124" y="180" width="38" height="16" fill="#1a0b04"/><rect x="163" y="141" width="31" height="55" fill="#1a0b04"/><rect x="167" y="147" width="3" height="4" fill="#f8e71c" opacity=".85"/><rect x="181" y="165" width="3" height="4" fill="#ff8a3d" opacity=".85"/><rect x="195" y="141" width="31" height="55" fill="#1a0b04"/><rect x="206" y="147" width="3" height="4" fill="#f8e71c" opacity=".85"/><rect x="206" y="183" width="3" height="4" fill="#ff8a3d" opacity=".85"/><rect x="227" y="156" width="28" height="40" fill="#1a0b04"/><rect x="245" y="189" width="3" height="4" fill="#f8e71c" opacity=".85"/><rect x="261" y="147" width="29" height="49" fill="#1a0b04"/><rect x="265" y="162" width="3" height="4" fill="#f8e71c" opacity=".85"/><rect x="279" y="189" width="3" height="4" fill="#ff2e88" opacity=".85"/><rect x="292" y="171" width="27" height="25" fill="#1a0b04"/><rect x="321" y="176" width="25" height="20" fill="#1a0b04"/><rect x="332" y="182" width="3" height="4" fill="#ff8a3d" opacity=".85"/><rect x="346" y="169" width="26" height="27" fill="#1a0b04"/><rect x="350" y="184" width="3" height="4" fill="#f8e71c" opacity=".85"/><rect x="376" y="149" width="41" height="47" fill="#1a0b04"/><rect x="387" y="164" width="3" height="4" fill="#ff8a3d" opacity=".85"/><rect x="394" y="173" width="3" height="4" fill="#f8e71c" opacity=".85"/><rect x="401" y="173" width="3" height="4" fill="#f8e71c" opacity=".85"/><rect x="417" y="150" width="46" height="46" fill="#1a0b04"/><rect x="421" y="156" width="3" height="4" fill="#ff8a3d" opacity=".85"/><rect x="428" y="156" width="3" height="4" fill="#f8e71c" opacity=".85"/><rect x="435" y="156" width="3" height="4" fill="#ff8a3d" opacity=".85"/><rect x="421" y="165" width="3" height="4" fill="#ff2e88" opacity=".85"/><rect x="442" y="174" width="3" height="4" fill="#ff8a3d" opacity=".85"/><rect x="466" y="143" width="46" height="53" fill="#1a0b04"/><rect x="491" y="149" width="3" height="4" fill="#ff8a3d" opacity=".85"/><rect x="517" y="179" width="25" height="17" fill="#1a0b04"/><rect x="545" y="151" width="29" height="45" fill="#1a0b04"/><rect x="549" y="157" width="3" height="4" fill="#ff8a3d" opacity=".85"/><rect x="579" y="147" width="33" height="49" fill="#1a0b04"/><rect x="583" y="171" width="3" height="4" fill="#ff2e88" opacity=".85"/><rect x="604" y="171" width="3" height="4" fill="#ff8a3d" opacity=".85"/><rect x="597" y="180" width="3" height="4" fill="#f8e71c" opacity=".85"/><rect x="616" y="175" width="22" height="21" fill="#1a0b04"/><rect x="0" y="196" width="640" height="84" fill="url(#sol)"/><line x1="176.0" y1="196" x2="-880.0" y2="280" stroke="#ff8a3d" stroke-width="1" opacity=".4"/><line x1="185.0" y1="196" x2="-805.0" y2="280" stroke="#ff8a3d" stroke-width="1" opacity=".4"/><line x1="194.0" y1="196" x2="-730.0" y2="280" stroke="#ff8a3d" stroke-width="1" opacity=".4"/><line x1="203.0" y1="196" x2="-655.0" y2="280" stroke="#ff8a3d" stroke-width="1" opacity=".4"/><line x1="212.0" y1="196" x2="-580.0" y2="280" stroke="#ff8a3d" stroke-width="1" opacity=".4"/><line x1="221.0" y1="196" x2="-505.0" y2="280" stroke="#ff8a3d" stroke-width="1" opacity=".4"/><line x1="230.0" y1="196" x2="-430.0" y2="280" stroke="#ff8a3d" stroke-width="1" opacity=".4"/><line x1="239.0" y1="196" x2="-355.0" y2="280" stroke="#ff8a3d" stroke-width="1" opacity=".4"/><line x1="248.0" y1="196" x2="-280.0" y2="280" stroke="#ff8a3d" stroke-width="1" opacity=".4"/><line x1="257.0" y1="196" x2="-205.0" y2="280" stroke="#ff8a3d" stroke-width="1" opacity=".4"/><line x1="266.0" y1="196" x2="-130.0" y2="280" stroke="#ff8a3d" stroke-width="1" opacity=".4"/><line x1="275.0" y1="196" x2="-55.0" y2="280" stroke="#ff8a3d" stroke-width="1" opacity=".4"/><line x1="284.0" y1="196" x2="20.0" y2="280" stroke="#ff8a3d" stroke-width="1" opacity=".4"/><line x1="293.0" y1="196" x2="95.0" y2="280" stroke="#ff8a3d" stroke-width="1" opacity=".4"/><line x1="302.0" y1="196" x2="170.0" y2="280" stroke="#ff8a3d" stroke-width="1" opacity=".4"/><line x1="311.0" y1="196" x2="245.0" y2="280" stroke="#ff8a3d" stroke-width="1" opacity=".4"/><line x1="320.0" y1="196" x2="320.0" y2="280" stroke="#ff8a3d" stroke-width="1" opacity=".4"/><line x1="329.0" y1="196" x2="395.0" y2="280" stroke="#ff8a3d" stroke-width="1" opacity=".4"/><line x1="338.0" y1="196" x2="470.0" y2="280" stroke="#ff8a3d" stroke-width="1" opacity=".4"/><line x1="347.0" y1="196" x2="545.0" y2="280" stroke="#ff8a3d" stroke-width="1" opacity=".4"/><line x1="356.0" y1="196" x2="620.0" y2="280" stroke="#ff8a3d" stroke-width="1" opacity=".4"/><line x1="365.0" y1="196" x2="695.0" y2="280" stroke="#ff8a3d" stroke-width="1" opacity=".4"/><line x1="374.0" y1="196" x2="770.0" y2="280" stroke="#ff8a3d" stroke-width="1" opacity=".4"/><line x1="383.0" y1="196" x2="845.0" y2="280" stroke="#ff8a3d" stroke-width="1" opacity=".4"/><line x1="392.0" y1="196" x2="920.0" y2="280" stroke="#ff8a3d" stroke-width="1" opacity=".4"/><line x1="401.0" y1="196" x2="995.0" y2="280" stroke="#ff8a3d" stroke-width="1" opacity=".4"/><line x1="410.0" y1="196" x2="1070.0" y2="280" stroke="#ff8a3d" stroke-width="1" opacity=".4"/><line x1="419.0" y1="196" x2="1145.0" y2="280" stroke="#ff8a3d" stroke-width="1" opacity=".4"/><line x1="428.0" y1="196" x2="1220.0" y2="280" stroke="#ff8a3d" stroke-width="1" opacity=".4"/><line x1="437.0" y1="196" x2="1295.0" y2="280" stroke="#ff8a3d" stroke-width="1" opacity=".4"/><line x1="446.0" y1="196" x2="1370.0" y2="280" stroke="#ff8a3d" stroke-width="1" opacity=".4"/><line x1="455.0" y1="196" x2="1445.0" y2="280" stroke="#ff8a3d" stroke-width="1" opacity=".4"/><line x1="464.0" y1="196" x2="1520.0" y2="280" stroke="#ff8a3d" stroke-width="1" opacity=".4"/><line x1="0" y1="199.0" x2="640" y2="199.0" stroke="#ff8a3d" stroke-width="1" opacity=".4"/><line x1="0" y1="203.2" x2="640" y2="203.2" stroke="#ff8a3d" stroke-width="1" opacity=".4"/><line x1="0" y1="209.1" x2="640" y2="209.1" stroke="#ff8a3d" stroke-width="1" opacity=".4"/><line x1="0" y1="217.3" x2="640" y2="217.3" stroke="#ff8a3d" stroke-width="1" opacity=".4"/><line x1="0" y1="228.8" x2="640" y2="228.8" stroke="#ff8a3d" stroke-width="1" opacity=".4"/><line x1="0" y1="245.0" x2="640" y2="245.0" stroke="#ff8a3d" stroke-width="1" opacity=".4"/><line x1="0" y1="267.6" x2="640" y2="267.6" stroke="#ff8a3d" stroke-width="1" opacity=".4"/><line x1="0" y1="196" x2="640" y2="196" stroke="#ff8a3d" stroke-width="2" filter="url(#lueur)"/><path d="M300 160 L610 160" stroke="#00f0ff" stroke-width="4" stroke-linecap="round" filter="url(#lueur)"/><path d="M390 160 C420 160 420 92 450 92 L510 92 C540 92 540 160 570 160" stroke="#ff8a3d" stroke-width="4" fill="none" stroke-linecap="round" filter="url(#lueur)"/><circle cx="330" cy="160" r="10" fill="#0b0d1c" stroke="#00f0ff" stroke-width="3"/><circle cx="390" cy="160" r="10" fill="#0b0d1c" stroke="#00f0ff" stroke-width="3"/><circle cx="450" cy="160" r="10" fill="#0b0d1c" stroke="#00f0ff" stroke-width="3"/><circle cx="510" cy="160" r="10" fill="#0b0d1c" stroke="#00f0ff" stroke-width="3"/><circle cx="570" cy="160" r="10" fill="#0b0d1c" stroke="#00f0ff" stroke-width="3"/><circle cx="450" cy="92" r="10" fill="#0b0d1c" stroke="#ff8a3d" stroke-width="3"/><circle cx="510" cy="92" r="10" fill="#0b0d1c" stroke="#ff8a3d" stroke-width="3"/><circle cx="570" cy="160" r="4" fill="#ff2e88"/><rect x="304" y="178" width="52" height="19" rx="3" fill="#0b0d1c" stroke="#00f0ff"/><text x="330" y="191" text-anchor="middle" font-family="JetBrains Mono,Consolas,monospace" font-size="11.5" fill="#00f0ff">main</text><rect x="441" y="52" width="80" height="19" rx="3" fill="#0b0d1c" stroke="#ff8a3d"/><text x="481" y="65" text-anchor="middle" font-family="JetBrains Mono,Consolas,monospace" font-size="11.5" fill="#ff8a3d">feature</text><rect x="542" y="108" width="56" height="19" rx="3" fill="#0b0d1c" stroke="#ff2e88"/><text x="570" y="121" text-anchor="middle" font-family="JetBrains Mono,Consolas,monospace" font-size="11" fill="#ff2e88">v1.4.0</text>
</svg>
