<svg xmlns="http://www.w3.org/2000/svg" viewBox="0 0 640 280" width="640" height="280" role="img" aria-label="Illustration du labo linux">
<defs>
<linearGradient id="ciel" x1="0" y1="0" x2="0" y2="1"><stop offset="0" stop-color="#0b6e63"/><stop offset="1" stop-color="#2bb59a"/></linearGradient>
<linearGradient id="mont" x1="0" y1="0" x2="0" y2="1"><stop offset="0" stop-color="#0a5c52"/><stop offset="1" stop-color="#0f1117"/></linearGradient>
</defs>
<rect width="640" height="280" fill="url(#ciel)"/>
<circle cx="120" cy="78" r="34" fill="#fff" opacity=".16"/>
<circle cx="120" cy="78" r="20" fill="#fff" opacity=".22"/>
<path d="M0 190 L70 128 L120 160 L190 92 L250 150 L300 118 L370 176 L430 130 L520 186 L580 140 L640 172 L640 280 L0 280 Z" fill="#fff" opacity=".10"/>
<path d="M0 230 L90 150 L150 196 L230 120 L320 210 L400 160 L470 214 L560 156 L640 206 L640 280 L0 280 Z" fill="url(#mont)" opacity=".75"/>
<path d="M230 120 L252 142 L242 140 L232 150 L222 141 L212 143 Z" fill="#fff" opacity=".85"/>
<path d="M90 150 L108 166 L98 164 L90 172 L82 165 L74 166 Z" fill="#fff" opacity=".7"/>
<path d="M0 280 L0 250 C120 236 200 262 320 246 C440 230 520 256 640 240 L640 280 Z" fill="#0f1117" opacity=".85"/>
<path d="M20 262 C120 250 180 270 300 256" stroke="#fff" stroke-width="2" stroke-dasharray="2 7" stroke-linecap="round" fill="none" opacity=".45"/><rect x="334" y="52" width="262" height="168" rx="12" fill="#000" opacity=".25"/>
<rect x="330" y="46" width="262" height="168" rx="12" fill="#11131c" stroke="#fff" stroke-opacity=".14"/>
<path d="M330 72 V58 a12 12 0 0 1 12 -12 H580 a12 12 0 0 1 12 12 V72 Z" fill="#1c1f2e"/>
<circle cx="346" cy="59" r="4.5" fill="#ff6b6b"/><circle cx="361" cy="59" r="4.5" fill="#fdcb6e"/><circle cx="376" cy="59" r="4.5" fill="#00b894"/>
<text x="481.0" y="63" text-anchor="middle" font-family="Segoe UI,system-ui,sans-serif" font-size="11" fill="#8b8fa3">etudiant@cimes : ~</text><text x="346" y="98" font-family="JetBrains Mono,Consolas,monospace" font-size="13" fill="#00b894">$</text><text x="362" y="98" font-family="JetBrains Mono,Consolas,monospace" font-size="12" fill="#e1e4ed">sudo systemctl status web</text><text x="346" y="122" font-family="JetBrains Mono,Consolas,monospace" font-size="12" fill="#8b8fa3">● web.service  active (running)</text><text x="346" y="146" font-family="JetBrains Mono,Consolas,monospace" font-size="13" fill="#00b894">$</text><text x="362" y="146" font-family="JetBrains Mono,Consolas,monospace" font-size="12" fill="#e1e4ed">df -h /var | tail -1</text><text x="346" y="170" font-family="JetBrains Mono,Consolas,monospace" font-size="12" fill="#8b8fa3">/dev/sda2   20G  9,1G  46 %</text><text x="346" y="194" font-family="JetBrains Mono,Consolas,monospace" font-size="13" fill="#00b894">$</text><text x="362" y="194" font-family="JetBrains Mono,Consolas,monospace" font-size="12" fill="#e1e4ed"></text><rect x="362" y="182" width="9" height="15" fill="#e1e4ed"><animate attributeName="opacity" values="1;0;1" dur="1.2s" repeatCount="indefinite"/></rect>
</svg>
